<svg version="1.1" preserveAspectRatio="none" xmlns="http://www.w3.org/2000/svg" width="500" height="500" viewBox="0 0 500 500"><rect width="100%" height="100%" fill="#F7F0E8" fill-opacity="1"/><svg viewBox="63.5341 251 464.6877 80" width="333" height="57.32882535948336" x="83.5px" y="221.3356px" xmlns="http://www.w3.org/2000/svg" xmlns:xlink="http://www.w3.org/1999/xlink" preserveAspectRatio="none"><defs></defs><style>.companyName {fill:#883F39;fill-opacity:1;}.icon1 {fill:#F3C1BC;fill-opacity:1;}.icon2 {fill:#C4AFAD;fill-opacity:1;}.icon3 {fill:#B28A87;fill-opacity:1;}.icon3-str {stroke:#B28A87;stroke-opacity:1;}</style><g opacity="1" transform="rotate(0 63.5341 251)">
<svg width="96.2417" height="80" x="63.5341" y="251" version="1.1" preserveAspectRatio="none" viewBox="19.99895477294922 33.5006103515625 160.00103759765625 132.9993896484375">
  <g transform="matrix(1 0 0 1 0 0)"><g><path d="M96.956 90.458c-.267 0-.534-.038-.793-.115L23.6 68.89a5.025 5.025 0 0 1-3.599-4.705 5.019 5.019 0 0 1 3.352-4.878l72.562-25.624c.556-.198 1.27-.25 1.838-.08.071.022.249.083.318.107l72.489 25.597a5.027 5.027 0 0 1 3.351 4.881 5.02 5.02 0 0 1-3.597 4.702L97.75 90.343a2.788 2.788 0 0 1-.794.115zM26.945 64.009l70.011 20.699 70.011-20.699-70.013-24.725-70.009 24.725zm70.011-27.706.797 2.7-.797-2.7z" data-color="1" class="icon1"></path><path d="M96.967 128.402c-10.531-.041-21.72-1.141-33.276-3.264-10.577-1.944-18.253-11.173-18.253-21.947v-29.95c0-1.556 1.256-2.816 2.805-2.816s2.805 1.259 2.805 2.816v29.95c0 8.055 5.742 14.954 13.653 16.409 11.23 2.062 22.086 3.129 32.265 3.171 10.156-.041 21.012-1.108 32.242-3.171 7.912-1.455 13.655-8.354 13.655-16.409v-29.95c0-1.556 1.256-2.816 2.805-2.816s2.805 1.259 2.805 2.816v29.95c0 10.774-7.677 20.003-18.254 21.947-11.555 2.123-22.742 3.223-33.252 3.264z" data-color="1" class="icon1"></path><path d="M177.195 166.5h-18.464a2.81 2.81 0 0 1-2.805-2.816v-39.811a2.81 2.81 0 0 1 2.805-2.816h18.464a2.81 2.81 0 0 1 2.805 2.816v39.811a2.81 2.81 0 0 1-2.805 2.816zm-15.659-5.632h12.853v-34.179h-12.853v34.179z" data-color="1" class="icon1"></path><path d="M167.962 126.689a2.81 2.81 0 0 1-2.805-2.816V66.649c0-1.556 1.256-2.816 2.805-2.816s2.805 1.26 2.805 2.816v57.224a2.81 2.81 0 0 1-2.805 2.816z" data-color="1" class="icon1"></path></g></g>
</svg>
</g><g opacity="1" transform="rotate(0 183.7758 266)">
<svg width="344.446" height="50" x="183.7758" y="266" version="1.1" preserveAspectRatio="none" viewBox="2.6 -31.64 220.72 32.04">
  <g transform="matrix(1 0 0 1 0 0)" class="companyName"><path id="id-D6z1nYkh9" d="M13-31.64Q15.92-31.64 18.36-30.24Q20.80-28.84 21.96-26.88L21.96-26.88Q22.12-26.60 22.12-26.24L22.12-26.24Q22.12-25.92 21.94-25.66Q21.76-25.40 21.44-25.24L21.44-25.24Q21.28-25.16 20.96-25.16L20.96-25.16Q20.24-25.16 19.84-25.76L19.84-25.76Q17.48-29.24 13-29.24L13-29.24Q9.68-29.24 7.82-27.74Q5.96-26.24 5.96-23.56L5.96-23.56Q5.96-21.32 7.80-19.80Q9.64-18.28 13.48-17.64L13.48-17.64Q18.52-16.80 20.84-14.54Q23.16-12.28 23.16-8.60L23.16-8.60Q23.16-5.84 21.94-3.80Q20.72-1.76 18.50-0.68Q16.28 0.40 13.36 0.40L13.36 0.40Q9.60 0.40 6.84-1.14Q4.08-2.68 2.72-5.36L2.72-5.36Q2.60-5.60 2.60-5.84L2.60-5.84Q2.60-6.32 2.94-6.64Q3.28-6.96 3.84-6.96L3.84-6.96Q4.64-6.96 5-6.20L5-6.20Q6.08-4.20 8.22-3.10Q10.36-2 13.36-2L13.36-2Q16.80-2 18.78-3.72Q20.76-5.44 20.76-8.60L20.76-8.60Q20.76-11.32 18.82-13.10Q16.88-14.88 13.08-15.40L13.08-15.40Q8.64-16.04 6.10-18.30Q3.56-20.56 3.56-23.80L3.56-23.80Q3.56-26.12 4.74-27.90Q5.92-29.68 8.06-30.66Q10.20-31.64 13-31.64L13-31.64Z M50.20-2.40Q50.68-2.40 51.04-2.04Q51.40-1.68 51.40-1.20L51.40-1.20Q51.40-0.68 51.04-0.34Q50.68 0 50.20 0L50.20 0L30.96 0Q30.44 0 30.10-0.34Q29.76-0.68 29.76-1.20L29.76-1.20L29.76-30.04Q29.76-30.56 30.10-30.90Q30.44-31.24 30.96-31.24L30.96-31.24L50.20-31.24Q50.68-31.24 51.04-30.90Q51.40-30.56 51.40-30.04L51.40-30.04Q51.40-29.56 51.04-29.20Q50.68-28.84 50.20-28.84L50.20-28.84L32.16-28.84L32.16-16.84L45.40-16.84Q45.92-16.84 46.26-16.50Q46.60-16.16 46.60-15.64L46.60-15.64Q46.60-15.12 46.26-14.76Q45.92-14.40 45.40-14.40L45.40-14.40L32.16-14.40L32.16-2.40L50.20-2.40Z M77.52-31.24Q78-31.24 78.30-30.94Q78.60-30.64 78.60-30.16L78.60-30.16Q78.60-29.68 78.30-29.38Q78-29.08 77.52-29.08L77.52-29.08L67.40-29.08L67.40-1.20Q67.40-0.68 67.06-0.34Q66.72 0 66.20 0L66.20 0Q65.68 0 65.34-0.34Q65-0.68 65-1.20L65-1.20L65-29.08L54.88-29.08Q54.40-29.08 54.10-29.38Q53.80-29.68 53.80-30.16L53.80-30.16Q53.80-30.64 54.10-30.94Q54.40-31.24 54.88-31.24L54.88-31.24L77.52-31.24Z M103.92-31.64Q106.84-31.64 109.28-30.24Q111.72-28.84 112.88-26.88L112.88-26.88Q113.04-26.60 113.04-26.24L113.04-26.24Q113.04-25.92 112.86-25.66Q112.68-25.40 112.36-25.24L112.36-25.24Q112.20-25.16 111.88-25.16L111.88-25.16Q111.16-25.16 110.76-25.76L110.76-25.76Q108.40-29.24 103.92-29.24L103.92-29.24Q100.60-29.24 98.74-27.74Q96.88-26.24 96.88-23.56L96.88-23.56Q96.88-21.32 98.72-19.80Q100.56-18.28 104.40-17.64L104.40-17.64Q109.44-16.80 111.76-14.54Q114.08-12.28 114.08-8.60L114.08-8.60Q114.08-5.84 112.86-3.80Q111.64-1.76 109.42-0.68Q107.20 0.40 104.28 0.40L104.28 0.40Q100.52 0.40 97.76-1.14Q95-2.68 93.64-5.36L93.64-5.36Q93.52-5.60 93.52-5.84L93.52-5.84Q93.52-6.32 93.86-6.64Q94.20-6.96 94.76-6.96L94.76-6.96Q95.56-6.96 95.92-6.20L95.92-6.20Q97-4.20 99.14-3.10Q101.28-2 104.28-2L104.28-2Q107.72-2 109.70-3.72Q111.68-5.44 111.68-8.60L111.68-8.60Q111.68-11.32 109.74-13.10Q107.80-14.88 104-15.40L104-15.40Q99.56-16.04 97.02-18.30Q94.48-20.56 94.48-23.80L94.48-23.80Q94.48-26.12 95.66-27.90Q96.84-29.68 98.98-30.66Q101.12-31.64 103.92-31.64L103.92-31.64Z M123.08-1.20Q123.08-0.68 122.76-0.34Q122.44 0 121.88 0L121.88 0Q121.36 0 121.02-0.34Q120.68-0.68 120.68-1.20L120.68-1.20L120.68-30.04Q120.68-30.60 121.02-30.92Q121.36-31.24 121.88-31.24L121.88-31.24L129.88-31.24Q132.76-31.24 135.04-29.96Q137.32-28.68 138.60-26.40Q139.88-24.12 139.88-21.24L139.88-21.24Q139.88-18.32 138.60-16.04Q137.32-13.76 135.04-12.48Q132.76-11.20 129.88-11.20L129.88-11.20L123.08-11.20L123.08-1.20ZM129.88-13.60Q132.08-13.60 133.80-14.58Q135.52-15.56 136.50-17.30Q137.48-19.04 137.48-21.24L137.48-21.24Q137.48-23.44 136.50-25.16Q135.52-26.88 133.80-27.86Q132.08-28.84 129.88-28.84L129.88-28.84L123.08-28.84L123.08-13.60L129.88-13.60Z M167.16-1.72Q167.28-1.48 167.28-1.20L167.28-1.20Q167.28-0.72 166.92-0.36Q166.56 0 166.08 0L166.08 0Q165.28 0 164.96-0.76L164.96-0.76L162-7.84L145.72-7.84L142.76-0.76Q142.48 0 141.64 0L141.64 0Q141.08 0 140.76-0.36Q140.44-0.72 140.44-1.20L140.44-1.20Q140.44-1.48 140.56-1.72L140.56-1.72L152.68-30.40Q153-31.24 153.84-31.24L153.84-31.24Q154.64-31.24 155-30.40L155-30.40L167.16-1.72ZM146.64-10L161.08-10L153.84-27.28L146.64-10Z M185.04-31.64Q190.64-31.64 194.92-28.08L194.92-28.08Q195.28-27.80 195.28-27.28L195.28-27.28Q195.28-26.80 194.96-26.42Q194.64-26.04 194.08-26.04L194.08-26.04Q193.64-26.04 193.08-26.52L193.08-26.52Q190.04-29.24 185.04-29.24L185.04-29.24Q181.52-29.24 178.46-27.36Q175.40-25.48 173.60-22.34Q171.80-19.20 171.80-15.64L171.80-15.64Q171.80-11.96 173.58-8.82Q175.36-5.68 178.42-3.84Q181.48-2 185.04-2L185.04-2Q189.76-2 193.32-4.92L193.32-4.92Q193.60-5.12 193.92-5.12L193.92-5.12Q194.40-5.12 194.78-4.76Q195.16-4.40 195.16-3.88L195.16-3.88Q195.16-3.36 194.88-3.04L194.88-3.04Q191.44 0.40 185.04 0.40L185.04 0.40Q180.84 0.40 177.24-1.78Q173.64-3.96 171.52-7.66Q169.40-11.36 169.40-15.64L169.40-15.64Q169.40-19.92 171.50-23.60Q173.60-27.28 177.18-29.46Q180.76-31.64 185.04-31.64L185.04-31.64Z M222.12-2.40Q222.60-2.40 222.96-2.04Q223.32-1.68 223.32-1.20L223.32-1.20Q223.32-0.68 222.96-0.34Q222.60 0 222.12 0L222.12 0L202.88 0Q202.36 0 202.02-0.34Q201.68-0.68 201.68-1.20L201.68-1.20L201.68-30.04Q201.68-30.56 202.02-30.90Q202.36-31.24 202.88-31.24L202.88-31.24L222.12-31.24Q222.60-31.24 222.96-30.90Q223.32-30.56 223.32-30.04L223.32-30.04Q223.32-29.56 222.96-29.20Q222.60-28.84 222.12-28.84L222.12-28.84L204.08-28.84L204.08-16.84L217.32-16.84Q217.84-16.84 218.18-16.50Q218.52-16.16 218.52-15.64L218.52-15.64Q218.52-15.12 218.18-14.76Q217.84-14.40 217.32-14.40L217.32-14.40L204.08-14.40L204.08-2.40L222.12-2.40Z"/></g>
</svg>
</g></svg></svg>